<svg viewBox="0 0 1024 1024" xmlns="http://www.w3.org/2000/svg"><path fill="#E4DDD0" d="M614.875157 102.458156l-80.250123-92.16014a30.002046 30.002046 0 0 0-45.250068 0l-80.250123 92.16014a30.008046 30.008046 0 0 0-7.374011 19.70203v551.700841h220.500336V122.160186c0-7.242011-2.620004-14.240022-7.376011-19.70203zM665.047233 733.861118H358.952767c-16.568025 0-30.000046 13.43202-30.000046 30.000046v48.600074c0 16.568025 13.43202 30.000046 30.000046 30.000045h67.420103v94.392144c0 47.914073 39.21006 87.956134 87.118132 87.134133 46.532071-0.796001 84.140128-38.898059 84.140128-85.61613V842.461283h67.416103c16.568025 0 30.000046-13.43202 30.000046-30.000045v-48.600074c0-16.568025-13.43202-30.000046-30.000046-30.000046z"/></svg>
