<svg viewBox="0 0 1024 1024" xmlns="http://www.w3.org/2000/svg"><path fill="#E4DDD0" d="M438.266 795.449h-0.01a123.9 123.9 0 0 1-26.745-3.052 157.927 157.927 0 0 1-26.879-8.661 194.714 194.714 0 0 1-26.209-13.523 224.121 224.121 0 0 1-24.74-17.635 237.076 237.076 0 0 1-22.476-21 228.7 228.7 0 0 1-19.414-23.621 202.867 202.867 0 0 1-15.557-25.491 167.557 167.557 0 0 1-10.9-26.614 129.036 129.036 0 0 1-5.862-33.53 100.919 100.919 0 0 1 4.1-32.672c6.779-22.459 21.648-41.644 44.194-57.02a154.684 154.684 0 0 1 42.989-20.285c13.659-4.075 26.821-6.135 38.434-7.952 31.582-4.942 56.525-8.845 69.811-47.836q0.407-1.19 0.83-2.435l0.142-0.417 0.229-0.675 0.01-0.028 0.031-0.09c3.275-9.623 7.35-21.594 12.116-34.008a349.594 349.594 0 0 1 16.473-37.219 174.535 174.535 0 0 1 9.772-16.528 95.539 95.539 0 0 1 10.751-13.411 47.882 47.882 0 0 1 11.7-9 27.111 27.111 0 0 1 12.611-3.287c0.262 0 0.486 0 0.682 0.009 4.33 0.121 7.233 1.48 8.628 4.04 1.3 2.392 1.3 5.8-0.011 10.116a47.426 47.426 0 0 1-4.7 10.19c-8.748 19.775-17.673 55.772 20.844 74.673l144.439-140.306-7.781-18.271 78.391-47.805 18.16-3.553 20.278 17.188-2.773 19.643-23.507 4.307-29.033 63.357-19.255-2.316-135.819 150.08c-8.015 21.459-6 36.939 6.157 47.327a34.686 34.686 0 0 0 23.046 8.75 44.121 44.121 0 0 0 10.937-1.465 67.441 67.441 0 0 0 9.374-3.223c2.074-0.873 3.9-1.725 5.5-2.477h0.022c2.736-1.279 4.712-2.2 5.739-2.2 0.474 0 0.727 0.2 0.773 0.613a71.109 71.109 0 0 1 0.307 14.635 45.278 45.278 0 0 1-2.55 11.618 35.318 35.318 0 0 1-4.924 9.014 36.618 36.618 0 0 1-6.814 6.828 58.121 58.121 0 0 1-17.372 8.746 193.7 193.7 0 0 1-19.1 4.956l-0.037 0.008c-7.562 1.686-14.705 3.277-20.127 5.748-39.505 18-41.48 41.151-43.98 70.464v0.012c-0.926 10.846-1.975 23.139-5.063 36.286a149.7 149.7 0 0 1-17.425 42.852 127.418 127.418 0 0 1-18.163 25.62 97.781 97.781 0 0 1-21.286 17.433c-14.486 8.682-30.956 13.093-48.958 13.093z m-73.358-186.45a18.521 18.521 0 0 0-18.5 18.5 18.481 18.481 0 0 0 8.236 15.394l61.865 58.222a18.43 18.43 0 0 0 14.4 6.885 18.521 18.521 0 0 0 18.5-18.5 18.407 18.407 0 0 0-5.2-12.859l58.205-17.135 2.492-0.733 1.312-2.249 3.42-5.838 5.783 3.084 15.48-29.03-23.142-12.337-15.478 29.026 5.782 3.079-1.842 3.128-63.13 18.594-55.915-52.625-0.026 0.025a18.475 18.475 0 0 0-12.242-4.631zM509.8 594.038a8.908 8.908 0 0 0 5.608 1.961 9.01 9.01 0 0 0 9-9 8.993 8.993 0 0 0-6.132-8.534l-59.054-51.936a9.026 9.026 0 0 0-7.814-4.531 9.011 9.011 0 0 0-9 9 9.012 9.012 0 0 0 3.008 6.715l-0.011 0.012 64.234 56.493 0.16-0.181z m-20.392-115.039a9.011 9.011 0 0 0-9 9 9.038 9.038 0 0 0 5.194 8.157l60.756 53.437a8.958 8.958 0 0 0 7.051 3.406 9.011 9.011 0 0 0 9-9 8.962 8.962 0 0 0-1.41-4.837 9.026 9.026 0 0 0-3.661-3.261l-61-53.651a8.985 8.985 0 0 0-6.93-3.251z"/></svg>
