<svg viewBox="0 0 1024 1024" xmlns="http://www.w3.org/2000/svg"><path fill="#E4DDD0" d="M446.976 178.432L295.936 0.682667H124.757333l151.125334 177.749333h171.093333z m444.501333 0L740.352 0.682667H569.173333l151.04 177.749333h171.178667z m-222.208 0L518.144 0.682667H347.050667l151.04 177.749333h171.178666zM955.904 0.682667H791.466667l151.04 177.749333h80.042666V67.413333a65.450667 65.450667 0 0 0-66.645333-66.56zM73.642667 0.682667H66.986667a65.450667 65.450667 0 0 0-66.56 66.645333v111.104h224.426666L73.557333 0.682667zM0.341333 911.786667c0 37.802667 28.928 66.645333 66.645334 66.645333h888.917333a65.450667 65.450667 0 0 0 66.645333-66.56V222.805333H0.341333v688.896z m355.584-488.874667c0-37.802667 31.061333-55.552 66.645334-55.552 11.093333 0 24.405333 2.218667 35.584 8.874667l253.269333 146.688a62.976 62.976 0 0 1 0 111.104L458.24 780.714667a65.194667 65.194667 0 0 1-35.584 8.874666c-35.584 0-66.645333-17.749333-66.645333-55.552V422.912z"/></svg>
