<svg viewBox="0 0 1024 1024" xmlns="http://www.w3.org/2000/svg"><path fill="#E4DDD0" d="M806.4 687.616a347.221333 347.221333 0 0 0-14.506667-67.925333c-18.261333-59.904-70.656-99.328-82.261333-107.434667a4.266667 4.266667 0 0 1-1.706667-4.266667c3.413333-17.322667 19.626667-116.224-14.336-249.514666C659.968 126.72 542.976 65.877333 518.912 54.528 516.266667 53.418667 511.232 51.882667 508.586667 53.077333c-11.52 5.205333-142.336 64.938667-178.176 205.482667-34.048 133.290667-17.664 232.106667-14.336 249.514667a4.266667 4.266667 0 0 1-1.706667 4.266666c-11.605333 8.192-64 47.530667-82.261333 107.52a351.317333 351.317333 0 0 0-14.506667 66.816 25.770667 25.770667 0 0 0 25.6 28.245334h136.789333a4.266667 4.266667 0 0 1 2.986667 1.194666l0.170667 0.256a4.266667 4.266667 0 0 1 1.28 2.986667A127.829333 127.829333 0 0 0 640 719.104a4.266667 4.266667 0 0 1 4.266667-4.266667h137.386666a25.002667 25.002667 0 0 0 24.917334-27.306666zM512 438.442667a73.216 73.216 0 1 1 0-146.432 73.216 73.216 0 0 1 0 146.432z"/><path fill="#E4DDD0" d="M463.104 365.226667a48.896 48.896 0 1 0 97.792 0 48.896 48.896 0 0 0-97.792 0zM334.933333 876.885333a26.794667 26.794667 0 0 1-26.794666-26.794666v-93.866667a26.794667 26.794667 0 0 1 53.504 0v93.866667a26.794667 26.794667 0 0 1-26.709334 26.794666z m357.205334 0.853334a26.794667 26.794667 0 0 1-26.794667-26.709334v-93.866666a26.794667 26.794667 0 0 1 53.504 0v93.866666a26.794667 26.794667 0 0 1-26.709333 26.794667zM512 1008.384a26.794667 26.794667 0 0 1-26.794667-26.794667v-93.866666a26.794667 26.794667 0 0 1 53.504 0v93.866666a26.794667 26.794667 0 0 1-26.709333 26.794667z"/></svg>
