<svg viewBox="0 0 1024 1024" xmlns="http://www.w3.org/2000/svg"><path fill="#E4DDD0" d="M480.207245 430.773224c66.610778-32.339543 152.33598 28.092228 148.956773 100.591307 2.992267 69.796516-74.623238 128.10513-140.65461 103.294873-54.833174-15.059575-89.296876-78.484616-72.209376-132.642149 7.81899-32.629247 33.788061-58.114142 63.907213-71.244031z m8.108693 34.850642c-27.898758 13.41859-44.214384 44.600321-39.194191 75.202645 1.448518 34.559936 33.498358 60.721475 66.321075 63.907212 47.013181 4.537019 91.806973-46.047837 76.747397-92.096676-11.873838-42.186459-63.907212-70.665626-103.874281-47.013181z"/><path fill="#E4DDD0" d="M689.57574 414.058629m-23.776747 0a23.776747 23.776747 0 1 0 47.553494 0 23.776747 23.776747 0 1 0-47.553494 0Z"/><path fill="#E4DDD0" d="M982.685619 386.121778c-34.945873-140.075202-136.792229-261.905092-269.240908-319.826767-58.951175-27.486757-123.586155-40.481317-188.451695-41.220111-264.219713 0.355864-478.301656 214.653331-478.301656 478.955244 0 263.696442 213.102565 477.610979 476.485245 478.944217 39.301452-0.49821 78.566816-5.56251 116.610212-14.928257 136.985699-35.429047 255.340147-135.440947 313.938466-264.221718 46.33754-98.273678 53.867829-212.573279 28.960336-317.702608z m-216.435659 270.786663c2.510096 24.327083-21.238582 41.607052-43.827445 40.159536-116.037822 1.448518-232.171878-0.385937-348.2097 0.772877-20.787487 0.65459-68.695842 4.811686-82.056291-7.530289-15.480598-14.29973-9.460978-41.317348-8.688101-62.55593 1.062581-77.326804-0.385937-154.652606 0.579407-231.882175-1.352284-16.701563 6.853646-33.884295 22.492628-40.835177 30.602324-4.730489 61.879287 0.289704 92.385378-4.440785 24.134616-12.453245 35.332813-44.696555 64.197918-49.137341 39.966066-5.598597 81.090946-5.40613 121.154248-0.482171 27.89976 3.861378 40.44924 31.953606 59.466427 49.040104 31.857372 7.143349 65.35573-0.869111 97.695274 4.826723 16.990264 5.985537 26.644712 24.23085 25.09996 41.800521-0.096234 86.690546 0.482171 173.57356-0.289703 260.264107z"/></svg>
